<svg xmlns="http://www.w3.org/2000/svg" xmlns:xlink="http://www.w3.org/1999/xlink" width="2048" zoomAndPan="magnify" viewBox="0 0 1536 460.499986" height="614" preserveAspectRatio="xMidYMid meet" version="1.0"><defs><g/><clipPath id="da6b83bc66"><path d="M 0.832031 0 L 1535.167969 0 L 1535.167969 460 L 0.832031 460 Z M 0.832031 0 " clip-rule="nonzero"/></clipPath></defs><g clip-path="url(#da6b83bc66)"><path fill="#ffffff" d="M 0.832031 0 L 1535.167969 0 L 1535.167969 460 L 0.832031 460 Z M 0.832031 0 " fill-opacity="1" fill-rule="nonzero"/><path fill="#ffffff" d="M 0.832031 0 L 1535.167969 0 L 1535.167969 460 L 0.832031 460 Z M 0.832031 0 " fill-opacity="1" fill-rule="nonzero"/></g><g fill="#0a66c2" fill-opacity="1"><g transform="translate(1.705124, 331.644988)"><g><path d="M 29.734375 -308.671875 C 37.722656 -316.660156 47.253906 -320.65625 58.328125 -320.65625 C 69.410156 -320.65625 78.941406 -316.660156 86.921875 -308.671875 C 94.910156 -300.691406 98.90625 -291.160156 98.90625 -280.078125 C 98.90625 -269.003906 94.910156 -259.476562 86.921875 -251.5 C 78.941406 -243.519531 69.410156 -239.53125 58.328125 -239.53125 C 47.253906 -239.53125 37.722656 -243.519531 29.734375 -251.5 C 21.753906 -259.476562 17.765625 -269.003906 17.765625 -280.078125 C 17.765625 -291.160156 21.753906 -300.691406 29.734375 -308.671875 Z M 23.1875 -198.1875 L 23.1875 0 L 91.5625 0 L 91.5625 -198.1875 Z M 23.1875 -198.1875 "/></g></g></g><g fill="#0a66c2" fill-opacity="1"><g transform="translate(88.226263, 331.644988)"><g><path d="M 23.1875 0 L 23.1875 -198.1875 L 91.5625 -198.1875 L 91.5625 -177.328125 L 92.328125 -177.328125 C 110.097656 -195.097656 129.03125 -203.984375 149.125 -203.984375 C 158.90625 -203.984375 168.625 -202.691406 178.28125 -200.109375 C 187.945312 -197.535156 197.222656 -193.546875 206.109375 -188.140625 C 214.992188 -182.734375 222.203125 -175.070312 227.734375 -165.15625 C 233.273438 -155.238281 236.046875 -143.710938 236.046875 -130.578125 L 236.046875 0 L 167.671875 0 L 167.671875 -112.03125 C 167.671875 -122.332031 164.382812 -131.347656 157.8125 -139.078125 C 151.25 -146.804688 142.6875 -150.671875 132.125 -150.671875 C 121.820312 -150.671875 112.484375 -146.675781 104.109375 -138.6875 C 95.742188 -130.707031 91.5625 -121.820312 91.5625 -112.03125 L 91.5625 0 Z M 23.1875 0 "/></g></g></g><g fill="#0a66c2" fill-opacity="1"><g transform="translate(313.419249, 331.644988)"><g><path d="M 34.765625 -198.1875 L 34.765625 -271.96875 L 103.15625 -271.96875 L 103.15625 -198.1875 L 144.875 -198.1875 L 144.875 -146.03125 L 103.15625 -146.03125 L 103.15625 -83.0625 C 103.15625 -64.769531 108.304688 -55.625 118.609375 -55.625 C 121.179688 -55.625 123.882812 -56.140625 126.71875 -57.171875 C 129.550781 -58.203125 131.738281 -59.234375 133.28125 -60.265625 L 135.59375 -61.8125 L 152.59375 -6.5625 C 137.914062 1.675781 121.175781 5.796875 102.375 5.796875 C 89.5 5.796875 78.425781 3.539062 69.15625 -0.96875 C 59.882812 -5.476562 52.863281 -11.53125 48.09375 -19.125 C 43.332031 -26.71875 39.921875 -34.695312 37.859375 -43.0625 C 35.796875 -51.4375 34.765625 -60.390625 34.765625 -69.921875 L 34.765625 -146.03125 L 6.1875 -146.03125 L 6.1875 -198.1875 Z M 34.765625 -198.1875 "/></g></g></g><g fill="#0a66c2" fill-opacity="1"><g transform="translate(435.863757, 331.644988)"><g><path d="M 223.6875 -89.625 L 79.96875 -89.625 C 79.96875 -75.71875 84.472656 -65.414062 93.484375 -58.71875 C 102.503906 -52.019531 112.296875 -48.671875 122.859375 -48.671875 C 133.929688 -48.671875 142.6875 -50.148438 149.125 -53.109375 C 155.5625 -56.078125 162.898438 -61.941406 171.140625 -70.703125 L 220.59375 -45.96875 C 199.988281 -11.457031 165.734375 5.796875 117.828125 5.796875 C 87.953125 5.796875 62.328125 -4.4375 40.953125 -24.90625 C 19.578125 -45.382812 8.890625 -70.046875 8.890625 -98.890625 C 8.890625 -127.742188 19.578125 -152.472656 40.953125 -173.078125 C 62.328125 -193.679688 87.953125 -203.984375 117.828125 -203.984375 C 149.253906 -203.984375 174.816406 -194.90625 194.515625 -176.75 C 214.222656 -158.59375 224.078125 -132.644531 224.078125 -98.90625 C 224.078125 -94.269531 223.945312 -91.175781 223.6875 -89.625 Z M 81.90625 -127.484375 L 157.234375 -127.484375 C 155.691406 -137.785156 151.632812 -145.703125 145.0625 -151.234375 C 138.5 -156.773438 130.066406 -159.546875 119.765625 -159.546875 C 108.429688 -159.546875 99.414062 -156.582031 92.71875 -150.65625 C 86.019531 -144.738281 82.414062 -137.015625 81.90625 -127.484375 Z M 81.90625 -127.484375 "/></g></g></g><g fill="#0a66c2" fill-opacity="1"><g transform="translate(638.652954, 331.644988)"><g><path d="M 23.1875 0 L 23.1875 -198.1875 L 91.5625 -198.1875 L 91.5625 -169.59375 L 92.328125 -169.59375 C 92.847656 -170.625 93.6875 -171.910156 94.84375 -173.453125 C 96 -175.003906 98.507812 -177.710938 102.375 -181.578125 C 106.238281 -185.441406 110.359375 -188.914062 114.734375 -192 C 119.117188 -195.09375 124.785156 -197.863281 131.734375 -200.3125 C 138.691406 -202.757812 145.773438 -203.984375 152.984375 -203.984375 C 160.453125 -203.984375 167.789062 -202.953125 175 -200.890625 C 182.21875 -198.828125 187.5 -196.765625 190.84375 -194.703125 L 196.25 -191.625 L 167.671875 -133.671875 C 159.171875 -140.878906 147.320312 -144.484375 132.125 -144.484375 C 123.882812 -144.484375 116.800781 -142.679688 110.875 -139.078125 C 104.945312 -135.472656 100.757812 -131.09375 98.3125 -125.9375 C 95.875 -120.789062 94.140625 -116.414062 93.109375 -112.8125 C 92.078125 -109.207031 91.5625 -106.375 91.5625 -104.3125 L 91.5625 0 Z M 23.1875 0 "/></g></g></g><g fill="#0a66c2" fill-opacity="1"><g transform="translate(800.883502, 331.644988)"><g><path d="M 23.1875 0 L 23.1875 -198.1875 L 91.5625 -198.1875 L 91.5625 -177.328125 L 92.328125 -177.328125 C 110.097656 -195.097656 129.03125 -203.984375 149.125 -203.984375 C 158.90625 -203.984375 168.625 -202.691406 178.28125 -200.109375 C 187.945312 -197.535156 197.222656 -193.546875 206.109375 -188.140625 C 214.992188 -182.734375 222.203125 -175.070312 227.734375 -165.15625 C 233.273438 -155.238281 236.046875 -143.710938 236.046875 -130.578125 L 236.046875 0 L 167.671875 0 L 167.671875 -112.03125 C 167.671875 -122.332031 164.382812 -131.347656 157.8125 -139.078125 C 151.25 -146.804688 142.6875 -150.671875 132.125 -150.671875 C 121.820312 -150.671875 112.484375 -146.675781 104.109375 -138.6875 C 95.742188 -130.707031 91.5625 -121.820312 91.5625 -112.03125 L 91.5625 0 Z M 23.1875 0 "/></g></g></g><g fill="#0a66c2" fill-opacity="1"><g transform="translate(1026.076513, 331.644988)"><g><path d="M 109.328125 -203.984375 C 120.660156 -203.984375 131.863281 -202.691406 142.9375 -200.109375 C 154.007812 -197.535156 162.253906 -194.960938 167.671875 -192.390625 L 175.78125 -188.53125 L 153.375 -143.71875 C 137.914062 -151.957031 123.234375 -156.078125 109.328125 -156.078125 C 101.597656 -156.078125 96.125 -155.238281 92.90625 -153.5625 C 89.6875 -151.882812 88.078125 -148.726562 88.078125 -144.09375 C 88.078125 -143.070312 88.207031 -142.046875 88.46875 -141.015625 C 88.726562 -139.984375 89.242188 -139.015625 90.015625 -138.109375 C 90.785156 -137.210938 91.492188 -136.441406 92.140625 -135.796875 C 92.785156 -135.148438 93.878906 -134.441406 95.421875 -133.671875 C 96.960938 -132.898438 98.1875 -132.320312 99.09375 -131.9375 C 100 -131.550781 101.476562 -130.96875 103.53125 -130.1875 C 105.59375 -129.414062 107.140625 -128.835938 108.171875 -128.453125 C 109.203125 -128.066406 110.941406 -127.488281 113.390625 -126.71875 C 115.835938 -125.945312 117.703125 -125.429688 118.984375 -125.171875 C 126.972656 -122.847656 133.925781 -120.269531 139.84375 -117.4375 C 145.769531 -114.601562 152.015625 -110.738281 158.578125 -105.84375 C 165.148438 -100.957031 170.238281 -94.78125 173.84375 -87.3125 C 177.445312 -79.84375 179.25 -71.34375 179.25 -61.8125 C 179.25 -16.738281 147.957031 5.796875 85.375 5.796875 C 71.207031 5.796875 57.75 3.609375 45 -0.765625 C 32.257812 -5.148438 23.054688 -9.53125 17.390625 -13.90625 L 8.890625 -20.859375 L 36.703125 -67.609375 C 38.765625 -65.804688 41.46875 -63.679688 44.8125 -61.234375 C 48.164062 -58.785156 54.21875 -55.4375 62.96875 -51.1875 C 71.726562 -46.9375 79.328125 -44.8125 85.765625 -44.8125 C 99.929688 -44.8125 107.015625 -49.578125 107.015625 -59.109375 C 107.015625 -63.484375 105.210938 -66.894531 101.609375 -69.34375 C 98.003906 -71.789062 91.882812 -74.554688 83.25 -77.640625 C 74.625 -80.734375 67.863281 -83.570312 62.96875 -86.15625 C 50.601562 -92.59375 40.816406 -99.863281 33.609375 -107.96875 C 26.398438 -116.082031 22.796875 -126.835938 22.796875 -140.234375 C 22.796875 -160.328125 30.585938 -175.972656 46.171875 -187.171875 C 61.753906 -198.378906 82.804688 -203.984375 109.328125 -203.984375 Z M 109.328125 -203.984375 "/></g></g></g><g fill="#0a66c2" fill-opacity="1"><g transform="translate(1185.989406, 331.644988)"><g><path d="M 173.46875 -198.1875 L 252.265625 -198.1875 L 96.578125 100.453125 L 17.765625 100.453125 L 86.15625 -30.90625 L -7.734375 -198.1875 L 71.078125 -198.1875 L 126.328125 -96.578125 Z M 173.46875 -198.1875 "/></g></g></g><g fill="#0a66c2" fill-opacity="1"><g transform="translate(1400.3668, 331.644988)"><g><path d="M 67.21875 -82.671875 C 79.582031 -82.671875 90.078125 -78.359375 98.703125 -69.734375 C 107.335938 -61.109375 111.65625 -50.613281 111.65625 -38.25 C 111.65625 -26.144531 107.335938 -15.773438 98.703125 -7.140625 C 90.078125 1.484375 79.582031 5.796875 67.21875 5.796875 C 55.113281 5.796875 44.75 1.484375 36.125 -7.140625 C 27.5 -15.773438 23.1875 -26.144531 23.1875 -38.25 C 23.1875 -50.613281 27.5 -61.109375 36.125 -69.734375 C 44.75 -78.359375 55.113281 -82.671875 67.21875 -82.671875 Z M 67.21875 -82.671875 "/></g></g></g></svg>